<?xml version="1.0" encoding="utf-8"?>
<!-- Generator: Adobe Illustrator 23.0.6, SVG Export Plug-In . SVG Version: 6.00 Build 0)  -->
<svg version="1.1" id="Layer_1" xmlns="http://www.w3.org/2000/svg" xmlns:xlink="http://www.w3.org/1999/xlink" x="0px" y="0px"
	 viewBox="0 0 214.2 77.3" style="enable-background:new 0 0 214.2 77.3;" xml:space="preserve">
<style type="text/css">
	.st0{fill:#FF9D1F;}
</style>
<g>
	<g>
		<path class="st0" d="M13.5,21.1c12.2-1,24.4-2.1,36.7-3.1c-0.1,2-0.2,1.9-1.8,2.2c-8,1.3-16,2.6-24,3.9c-0.2,0-0.4,0.1-0.7,0.2
			c9.7,13,14.8,27.9,18.4,43.3c4.2-2.2,8.2-4.4,12.4-6.4c4.1-2,8.5-3.3,13.1-4C57.2,61,47.8,66.4,39.9,74.5c-0.5-2-0.9-3.9-1.4-5.7
			c-2.5-9.9-5.8-19.5-10.7-28.5c-3.6-6.8-8.1-13-13.7-18.2c-0.2-0.2-0.3-0.3-0.5-0.5C13.5,21.5,13.5,21.4,13.5,21.1z"/>
		<path class="st0" d="M7,29.5c2.6-0.5,4.8-0.8,7-1.5c2.1-0.6,3.4,0.1,4.7,1.8c6.1,7.9,10.5,16.6,13.8,25.9c0.5,1.4,1,2.8,1.3,4.3
			C27.3,47.9,18.5,37.7,7,29.5z"/>
		<path class="st0" d="M0.9,38.1c3.2-1,6.3-2.1,9.5-3.1c0.4-0.1,1,0.3,1.4,0.6c5.1,4.3,9.6,9.1,13.4,14.5c1.7,2.4,3.2,4.9,4.8,7.4
			c0.2,0.3,0.4,0.7,0.5,1.2c-8.3-9-18.3-15.5-29.6-20C0.9,38.4,0.9,38.3,0.9,38.1z"/>
		<path class="st0" d="M72.6,25c5.9-4.9,8-10.9,6.4-18.3c-0.3,0.2-0.4,0.4-0.6,0.5c-4.1,4.9-9.2,8.4-15,11c-2.2,1-4.5,1.9-6,4.1
			c-0.1-1.4,0.7-2.7,2.3-3.7c1.4-0.8,2.9-1.6,4.4-2.4c6.1-3.2,11.2-7.5,15.4-12.9c0.2-0.2,0.3-0.4,0.5-0.6c0.9,3.9,1.2,7.6,0.5,11.4
			c-0.7,4.2-2.7,7.6-6.3,10c-0.3,0.2-0.7,0.5-1.1,0.7C73.1,24.9,73,24.9,72.6,25z"/>
		<path class="st0" d="M88.4,49.5c-10.8-0.2-21.5-1.5-32.3-0.9c-0.2,0-0.3,0.1-0.3,0.3l0,0c0,0.2,0,0.3,0.2,0.4
			c0.5,0.2,0.9,0.5,1.4,0.6c3.3,0.8,6.5,1.6,9.8,2.4c1.2,0.3,2.4,0.7,3.6,1.1c0.2,0.1,0.3,0.2,0.3,0.4l0,0c0,0.1-0.1,0.2-0.2,0.2
			c-0.3,0.1-0.6,0.1-0.9,0.2c-0.3,0.1-0.7,0.1-1,0.1c-4,0.1-8,0.1-12,0.1c-3.4,0-6.9-0.3-10.3-0.4c-0.4,0-0.8-0.1-1.1-0.2
			c6.6-0.2,13.2,0.2,19.7-0.3c0.1,0,0.2-0.1,0.3-0.2l0,0c0-0.1,0-0.2-0.1-0.2c-0.4-0.2-0.7-0.3-1.1-0.4c-2.5-0.8-5.2-1.2-7.8-1.9
			c-1.1-0.3-2.1-0.7-3.1-1.1c0,0-0.1,0-0.1-0.1c-0.5-0.3-0.5-1.1,0-1.4c0.1,0,0.2-0.1,0.2-0.1c1.1-0.2,1.9-0.4,3.2-0.5
			c0.1,0,0.4,0,0.5,0c6.3,0.1,12.6,0.2,18.9,0.6C80.2,48.5,84.3,49.1,88.4,49.5z"/>
		<path class="st0" d="M47.5,51.8c-0.3-1.9-1.2-3.7-1.3-5.5c-0.4-5.6,2.3-9.9,6.5-13.2c2.2-1.7,4.6-3.1,7-4.6c1.7-1.1,3.5-2,5.3-3.1
			c0.1,0.1,0.1,0.2,0.2,0.3c-1.8,1.4-3.6,2.7-5.3,4.1c-2.8,2.3-5.7,4.4-8.2,6.9c-3.9,4-5.1,8.9-4.4,14.4
			C47.5,51.3,47.5,51.5,47.5,51.8"/>
		<path class="st0" d="M52.8,39.7c4.7-0.6,9.1-1.9,12.8-5c2.4-1.9,4.3-4.2,5.7-6.9c0.9-1.7,2.2-2.5,4.1-3.2
			c-2.1,4.6-4.7,8.6-8.7,11.6C62.9,39,57.4,40.4,52.8,39.7z"/>
		<path class="st0" d="M47.4,36.5c0.4-7.1,3-13,9.9-16.4c-0.3,1.3-0.4,2.3-1.7,3c-3.7,2.1-5.7,5.6-7,9.5
			C48.1,33.9,47.8,35.2,47.4,36.5z"/>
	</g>
	<g>
		<g>
			<path class="st0" d="M115.6,38.7c0,1.7-0.4,3.1-1.3,4.3c-0.9,1.2-2,2.1-3.5,2.8c-1.4,0.7-3.1,1-4.9,1h-15V15.4h16.2
				c1.5,0,2.7,0.4,3.8,1.2c1.1,0.8,1.9,1.8,2.5,3c0.6,1.2,0.9,2.5,0.9,3.8c0,1.5-0.4,2.9-1.2,4.3c-0.8,1.4-1.9,2.4-3.3,3
				c1.8,0.5,3.2,1.5,4.3,2.9C115.1,35,115.6,36.7,115.6,38.7z M95.9,19.7V29h9.1c0.8,0,1.6-0.2,2.2-0.6c0.6-0.4,1.2-1,1.5-1.7
				c0.4-0.7,0.6-1.5,0.6-2.4c0-0.9-0.2-1.7-0.5-2.4c-0.3-0.7-0.8-1.2-1.4-1.7c-0.6-0.4-1.3-0.6-2.1-0.6H95.9z M110.6,37.8
				c0-0.9-0.2-1.7-0.6-2.4c-0.4-0.7-0.9-1.3-1.5-1.8c-0.6-0.4-1.4-0.7-2.2-0.7H95.9v9.6h10c0.9,0,1.7-0.2,2.4-0.7
				c0.7-0.5,1.2-1,1.7-1.7C110.4,39.4,110.6,38.6,110.6,37.8z"/>
			<path class="st0" d="M133.9,47c-2.2,0-4.2-0.4-6.1-1.3c-1.8-0.9-3.4-2.1-4.8-3.6c-1.3-1.5-2.4-3.2-3.1-5.1
				c-0.7-1.9-1.1-3.9-1.1-5.9c0-2.1,0.4-4.1,1.2-6c0.8-1.9,1.8-3.6,3.2-5.1c1.4-1.5,3-2.7,4.8-3.5c1.8-0.9,3.8-1.3,6-1.3
				c2.3,0,4.3,0.5,6.1,1.4c1.8,0.9,3.4,2.1,4.7,3.7c1.3,1.5,2.3,3.2,3.1,5.1c0.7,1.9,1.1,3.8,1.1,5.8c0,2.1-0.4,4-1.1,5.9
				c-0.7,1.9-1.8,3.6-3.2,5.1c-1.4,1.5-3,2.7-4.8,3.5C138.1,46.6,136.1,47,133.9,47z M123.9,31.1c0,1.5,0.2,2.9,0.7,4.3
				c0.5,1.4,1.1,2.6,2,3.7c0.9,1.1,1.9,1.9,3.1,2.5c1.2,0.6,2.6,0.9,4.2,0.9c1.6,0,3-0.3,4.2-1c1.2-0.6,2.3-1.5,3.1-2.6
				c0.9-1.1,1.5-2.3,1.9-3.7c0.4-1.4,0.7-2.7,0.7-4.2c0-1.5-0.2-2.9-0.7-4.3c-0.5-1.4-1.1-2.6-2-3.6c-0.9-1.1-1.9-1.9-3.2-2.5
				c-1.2-0.6-2.6-0.9-4.1-0.9c-1.6,0-3,0.3-4.3,1c-1.2,0.6-2.3,1.5-3.1,2.6c-0.9,1.1-1.5,2.3-1.9,3.7
				C124.2,28.3,123.9,29.7,123.9,31.1z"/>
			<path class="st0" d="M167.1,47c-2.2,0-4.2-0.4-6.1-1.3c-1.8-0.9-3.4-2.1-4.8-3.6c-1.3-1.5-2.4-3.2-3.1-5.1
				c-0.7-1.9-1.1-3.9-1.1-5.9c0-2.1,0.4-4.1,1.2-6c0.8-1.9,1.8-3.6,3.2-5.1c1.4-1.5,3-2.7,4.8-3.5c1.8-0.9,3.8-1.3,6-1.3
				c2.3,0,4.3,0.5,6.1,1.4c1.8,0.9,3.4,2.1,4.7,3.7c1.3,1.5,2.3,3.2,3.1,5.1c0.7,1.9,1.1,3.8,1.1,5.8c0,2.1-0.4,4-1.1,5.9
				c-0.7,1.9-1.8,3.6-3.2,5.1c-1.4,1.5-3,2.7-4.8,3.5C171.3,46.6,169.3,47,167.1,47z M157.2,31.1c0,1.5,0.2,2.9,0.7,4.3
				c0.5,1.4,1.1,2.6,2,3.7c0.9,1.1,1.9,1.9,3.1,2.5c1.2,0.6,2.6,0.9,4.2,0.9c1.6,0,3-0.3,4.2-1c1.2-0.6,2.3-1.5,3.1-2.6
				c0.9-1.1,1.5-2.3,1.9-3.7c0.4-1.4,0.7-2.7,0.7-4.2c0-1.5-0.2-2.9-0.7-4.3c-0.5-1.4-1.2-2.6-2-3.6c-0.9-1.1-1.9-1.9-3.2-2.5
				c-1.2-0.6-2.6-0.9-4.1-0.9c-1.6,0-3,0.3-4.3,1c-1.2,0.6-2.3,1.5-3.1,2.6c-0.9,1.1-1.5,2.3-1.9,3.7
				C157.4,28.3,157.2,29.7,157.2,31.1z"/>
			<path class="st0" d="M187.4,46.8V15.4h5v16.2l14.7-16.3h5.5l-12.3,13.9l13,17.5h-5.6l-10.6-14.4l-4.7,4.9v9.5H187.4z"/>
		</g>
		<g>
			<path class="st0" d="M90.9,62v-9.3h3.9c0.4,0,0.8,0.1,1.2,0.3c0.4,0.2,0.7,0.4,0.9,0.7c0.3,0.3,0.5,0.6,0.6,1
				c0.1,0.4,0.2,0.7,0.2,1.1c0,0.5-0.1,1-0.4,1.5s-0.6,0.9-1,1.2c-0.4,0.3-0.9,0.4-1.5,0.4h-2.2V62H90.9z M92.8,57.3h2.1
				c0.2,0,0.4-0.1,0.6-0.2c0.2-0.1,0.3-0.3,0.4-0.5c0.1-0.2,0.2-0.5,0.2-0.8c0-0.3-0.1-0.6-0.2-0.8c-0.1-0.2-0.3-0.4-0.5-0.5
				c-0.2-0.1-0.4-0.2-0.6-0.2h-2V57.3z"/>
			<path class="st0" d="M103,62c-0.7,0-1.4-0.1-1.9-0.4s-0.9-0.6-1.3-1c-0.3-0.4-0.6-0.9-0.7-1.5C99,58.6,99,58,99,57.4v-4.7h1.8
				v4.7c0,0.4,0,0.8,0.1,1.1c0.1,0.4,0.2,0.7,0.4,1c0.2,0.3,0.4,0.5,0.7,0.7c0.3,0.2,0.6,0.2,1.1,0.2c0.4,0,0.8-0.1,1.1-0.3
				c0.3-0.2,0.5-0.4,0.7-0.7c0.2-0.3,0.3-0.6,0.4-1c0.1-0.4,0.1-0.7,0.1-1.1v-4.7h1.8v4.7c0,0.6-0.1,1.2-0.2,1.8
				c-0.2,0.6-0.4,1.1-0.7,1.5c-0.3,0.4-0.7,0.8-1.3,1C104.3,61.9,103.7,62,103,62z"/>
			<path class="st0" d="M116.3,59.6c0,0.5-0.1,0.9-0.4,1.3c-0.3,0.4-0.6,0.6-1.1,0.8c-0.5,0.2-1,0.3-1.5,0.3h-4.5v-9.3h5
				c0.4,0,0.8,0.1,1.1,0.3c0.3,0.2,0.6,0.5,0.7,0.9c0.2,0.4,0.3,0.7,0.3,1.1c0,0.4-0.1,0.9-0.3,1.3c-0.2,0.4-0.6,0.7-1,0.9
				c0.5,0.2,1,0.4,1.3,0.8C116.2,58.5,116.3,59,116.3,59.6z M110.7,54.2v2.3h2.4c0.2,0,0.4,0,0.5-0.1c0.2-0.1,0.3-0.2,0.4-0.4
				c0.1-0.2,0.2-0.4,0.2-0.6c0-0.2,0-0.5-0.1-0.6c-0.1-0.2-0.2-0.3-0.4-0.4c-0.2-0.1-0.3-0.2-0.5-0.2H110.7z M114.5,59.2
				c0-0.2,0-0.4-0.1-0.6c-0.1-0.2-0.2-0.3-0.4-0.5c-0.2-0.1-0.3-0.2-0.6-0.2h-2.8v2.5h2.7c0.2,0,0.4-0.1,0.6-0.2
				c0.2-0.1,0.3-0.3,0.4-0.4C114.5,59.6,114.5,59.4,114.5,59.2z"/>
			<path class="st0" d="M117.7,62v-9.3h1.8v7.7h4.7V62H117.7z"/>
			<path class="st0" d="M125.4,62v-9.3h1.8V62H125.4z"/>
			<path class="st0" d="M134.6,55.1c-0.1-0.1-0.2-0.1-0.3-0.2c-0.2-0.1-0.4-0.2-0.6-0.3c-0.2-0.1-0.5-0.2-0.8-0.3
				c-0.3-0.1-0.5-0.1-0.8-0.1c-0.5,0-0.9,0.1-1.1,0.3c-0.2,0.2-0.4,0.4-0.4,0.8c0,0.3,0.1,0.4,0.2,0.6c0.2,0.1,0.4,0.3,0.7,0.4
				c0.3,0.1,0.7,0.2,1.2,0.3c0.6,0.1,1.1,0.3,1.6,0.5s0.8,0.5,1,0.8c0.2,0.3,0.4,0.8,0.4,1.4c0,0.5-0.1,0.9-0.3,1.2
				c-0.2,0.3-0.4,0.6-0.8,0.9c-0.3,0.2-0.7,0.4-1.1,0.5c-0.4,0.1-0.9,0.2-1.3,0.2s-0.9,0-1.4-0.1c-0.5-0.1-0.9-0.2-1.3-0.4
				c-0.4-0.2-0.8-0.4-1.2-0.6l0.8-1.6c0.1,0.1,0.2,0.2,0.4,0.3c0.2,0.1,0.4,0.3,0.7,0.4s0.6,0.2,0.9,0.3c0.3,0.1,0.7,0.1,1,0.1
				c0.5,0,0.9-0.1,1.1-0.2c0.2-0.2,0.4-0.4,0.4-0.7c0-0.3-0.1-0.5-0.3-0.7c-0.2-0.2-0.5-0.3-0.8-0.4c-0.4-0.1-0.8-0.2-1.3-0.4
				c-0.6-0.2-1.1-0.4-1.5-0.6c-0.4-0.2-0.7-0.5-0.9-0.8c-0.2-0.3-0.3-0.7-0.3-1.2c0-0.6,0.2-1.2,0.5-1.6c0.3-0.4,0.7-0.8,1.2-1
				c0.5-0.2,1.1-0.3,1.7-0.3c0.4,0,0.8,0,1.2,0.1c0.4,0.1,0.8,0.2,1.1,0.4c0.3,0.2,0.6,0.3,0.9,0.5L134.6,55.1z"/>
			<path class="st0" d="M144.9,52.7V62h-1.8v-4h-4.2v4h-1.8v-9.3h1.8v3.7h4.2v-3.7H144.9z"/>
			<path class="st0" d="M153.3,60.4V62h-6.4v-9.3h6.3v1.6h-4.5v2.2h3.9V58h-3.9v2.4H153.3z"/>
			<path class="st0" d="M154.7,62v-9.3h4.1c0.4,0,0.8,0.1,1.2,0.3c0.4,0.2,0.7,0.4,0.9,0.7c0.3,0.3,0.5,0.6,0.6,1
				c0.1,0.4,0.2,0.7,0.2,1.1c0,0.4-0.1,0.8-0.2,1.1c-0.1,0.4-0.3,0.7-0.6,0.9c-0.3,0.3-0.5,0.5-0.9,0.6l2.1,3.5h-2l-1.9-3.1h-1.8V62
				H154.7z M156.5,57.3h2.3c0.2,0,0.4-0.1,0.6-0.2c0.2-0.1,0.3-0.3,0.4-0.5c0.1-0.2,0.2-0.5,0.2-0.8c0-0.3-0.1-0.5-0.2-0.8
				c-0.1-0.2-0.3-0.4-0.5-0.5c-0.2-0.1-0.4-0.2-0.6-0.2h-2.2V57.3z"/>
			<path class="st0" d="M172.2,60.9v1h-6.3v-9.3h6.2v1h-5v3h4.3v1h-4.3v3.2H172.2z"/>
			<path class="st0" d="M174.1,52.7l2.8,3.8l2.8-3.8h1.3l-3.5,4.7l3.4,4.6h-1.3l-2.7-3.7l-2.7,3.7h-1.3l3.4-4.6l-3.5-4.7H174.1z"/>
			<path class="st0" d="M182.1,62v-9.3h3.9c0.4,0,0.8,0.1,1.1,0.3c0.3,0.2,0.6,0.4,0.9,0.7c0.3,0.3,0.4,0.6,0.6,1
				c0.1,0.4,0.2,0.7,0.2,1.1c0,0.5-0.1,1-0.3,1.4s-0.5,0.8-1,1.1c-0.4,0.3-0.9,0.4-1.4,0.4h-2.8V62H182.1z M183.3,57.6h2.7
				c0.3,0,0.6-0.1,0.8-0.3c0.2-0.2,0.4-0.4,0.6-0.7c0.1-0.3,0.2-0.6,0.2-1c0-0.4-0.1-0.7-0.2-1c-0.2-0.3-0.4-0.5-0.6-0.7
				c-0.3-0.2-0.5-0.2-0.8-0.2h-2.6V57.6z"/>
			<path class="st0" d="M196.6,60.9v1h-6.3v-9.3h6.2v1h-5v3h4.3v1h-4.3v3.2H196.6z"/>
			<path class="st0" d="M198.2,62v-9.3h4c0.4,0,0.8,0.1,1.1,0.3c0.3,0.2,0.6,0.4,0.9,0.7c0.3,0.3,0.4,0.6,0.6,1
				c0.1,0.4,0.2,0.7,0.2,1.1c0,0.4-0.1,0.8-0.2,1.2c-0.2,0.4-0.4,0.7-0.7,1c-0.3,0.3-0.6,0.5-1,0.6l2.2,3.6h-1.3l-2.1-3.3h-2.5V62
				H198.2z M199.3,57.6h2.8c0.3,0,0.6-0.1,0.8-0.3c0.2-0.2,0.4-0.4,0.6-0.7c0.1-0.3,0.2-0.6,0.2-1c0-0.3-0.1-0.7-0.2-1
				c-0.2-0.3-0.4-0.5-0.6-0.7c-0.3-0.2-0.5-0.3-0.8-0.3h-2.7V57.6z"/>
			<path class="st0" d="M213.3,53.7h-3.2V62h-1.2v-8.2h-3.2v-1h7.6V53.7z"/>
		</g>
	</g>
</g>
</svg>
